<?xml version="1.0" encoding="iso-8859-1"?>
<!-- Uploaded to: SVG Repo, www.svgrepo.com, Generator: SVG Repo Mixer Tools -->
<!DOCTYPE svg PUBLIC "-//W3C//DTD SVG 1.1//EN" "http://www.w3.org/Graphics/SVG/1.1/DTD/svg11.dtd">
<svg fill="#000000" version="1.1" id="Capa_1" xmlns="http://www.w3.org/2000/svg" xmlns:xlink="http://www.w3.org/1999/xlink" 
	 width="800px" height="800px" viewBox="0 0 456.715 456.715"
	 xml:space="preserve">
<g>
	<g>
		<path d="M228.357,456.715c6.902,0,12.5-5.598,12.5-12.5v-59.283c100.436-6.463,180.174-90.217,180.174-192.258
			C421.031,86.433,334.598,0,228.357,0S35.684,86.434,35.684,192.675c0,102.041,79.738,185.794,180.174,192.259v59.283
			C215.857,451.119,221.455,456.715,228.357,456.715z M60.684,192.675c0-92.456,75.218-167.674,167.674-167.674
			s167.674,75.218,167.674,167.674S320.813,360.35,228.357,360.35S60.684,285.131,60.684,192.675z"/>
		<path d="M248.092,295.973l8.511,35.248c1.383,5.725,6.5,9.569,12.142,9.569c0.971,0,1.959-0.114,2.943-0.353
			c6.711-1.619,10.838-8.373,9.218-15.084l-7.093-29.381h34.971c6.903,0,12.5-5.597,12.5-12.5V189.95v-71.926V78.428
			c0-6.904-5.597-12.5-12.5-12.5H147.932c-6.903,0-12.5,5.596-12.5,12.5v39.596v71.926v93.523c0,6.903,5.597,12.5,12.5,12.5h34.973
			l-7.093,29.381c-1.62,6.711,2.507,13.465,9.218,15.084c0.986,0.238,1.973,0.353,2.943,0.353c5.641,0,10.759-3.845,12.142-9.569
			l8.51-35.248H248.092z M160.432,130.525h135.852v46.926H160.432V130.525z M296.283,90.928v14.596H160.432V90.928H296.283z
			 M160.432,202.45h135.852v68.523H160.432V202.45z"/>
		<path d="M207.986,234.039h-26.096c-6.903,0-12.5,5.596-12.5,12.5s5.597,12.5,12.5,12.5h26.096c6.903,0,12.5-5.596,12.5-12.5
			S214.89,234.039,207.986,234.039z"/>
		<path d="M274.824,234.039H248.73c-6.902,0-12.5,5.596-12.5,12.5s5.598,12.5,12.5,12.5h26.094c6.903,0,12.5-5.596,12.5-12.5
			S281.728,234.039,274.824,234.039z"/>
		<path d="M117.367,109.664c-6.903,0-12.5,5.596-12.5,12.5v27.575c0,6.903,5.597,12.5,12.5,12.5c6.903,0,12.5-5.597,12.5-12.5
			v-27.575C129.867,115.26,124.271,109.664,117.367,109.664z"/>
		<path d="M339.348,162.238c6.902,0,12.5-5.597,12.5-12.5v-27.575c0-6.904-5.598-12.5-12.5-12.5c-6.903,0-12.5,5.596-12.5,12.5
			v27.575C326.848,156.642,332.444,162.238,339.348,162.238z"/>
	</g>
</g>
</svg>